<svg xmlns="http://www.w3.org/2000/svg" viewBox="0 0 249.81 60.377"><defs><style>.cls-1{fill:#fff}</style></defs><g id="Group_97" data-name="Group 97"><path id="Path_3" data-name="Path 3" class="cls-1" d="M63.9 60.377H50.814l-7.422-46.856-.476.038H23.82L30.718 0H53.77L63.9 60.377zm-17.04 0H34.388l-4.754-30.219-14.253-.012L21.9 17.46h18.166l6.8 42.917zm-16.425 0H0l11.414-22.434h15.47l3.553 22.433z"></path><path id="Path_38" data-name="Path 38" class="cls-1" d="M7.43-17.84h1.746l7.739 17.4h-2.539l-2.3-5.126H4.718L2.538-.442H0zm3.628 10.067l-2.786-6.266-2.588 6.266zm24.806-9.968h2.353v17.3h-2.13L24.521-13.754V-.442h-2.328v-17.3H24.2L35.863-4.318zm23.1 0h2.353v17.3h-2.13l-11.57-13.313V-.442h-2.328v-17.3H47.3L58.96-4.318zm9.352 0h9.807v2.2h-7.335v5.275h7.083v2.217h-7.083v5.374h7.566v2.2H68.312zm29.721 0h2.353v17.3h-2.13L86.691-13.754V-.442h-2.328v-17.3h2.006L98.033-4.318zm15.209 17.3h-5.857v-17.3h4.532a7.889 7.889 0 0 1 3.343.576 4.275 4.275 0 0 1 1.833 1.585 4.307 4.307 0 0 1 .632 2.334 3.767 3.767 0 0 1-2.638 3.653 5.351 5.351 0 0 1 3.015 1.56 4.065 4.065 0 0 1 1.121 2.873 4.221 4.221 0 0 1-.681 2.365 4.954 4.954 0 0 1-2 1.7 7.377 7.377 0 0 1-3.304.653zm-1.251-15.094h-2.13v5.2h1.647a4.178 4.178 0 0 0 2.817-.755 2.515 2.515 0 0 0 .836-1.956q-.004-2.491-3.173-2.491zm.186 7.4h-2.316v5.486h2.435a7.949 7.949 0 0 0 2.755-.316 2.62 2.62 0 0 0 1.164-.984 2.567 2.567 0 0 0 .44-1.436 2.453 2.453 0 0 0-.464-1.449 2.751 2.751 0 0 0-1.319-.978 8.258 8.258 0 0 0-2.699-.32zm12.782-9.609h9.807v2.2h-7.331v5.275h7.083v2.217h-7.083v5.374H135v2.2h-10.041zM141.01-.442v-17.3h4.334a6.256 6.256 0 0 1 4.167 1.3 4.361 4.361 0 0 1 1.542 3.517 4.508 4.508 0 0 1-.755 2.613 4.506 4.506 0 0 1-2.167 1.647 7.644 7.644 0 0 1 1.622 1.486 29.929 29.929 0 0 1 2.228 3.279q.9 1.474 1.449 2.216l.916 1.238H151.4l-.755-1.139q-.037-.062-.149-.211l-.483-.681-.768-1.263-.83-1.35a13.656 13.656 0 0 0-1.405-1.7 5.347 5.347 0 0 0-1.152-.91 3.878 3.878 0 0 0-1.727-.279h-.644v7.537zm3.219-15.194h-.743v5.461h.941a6.985 6.985 0 0 0 2.582-.322 2.421 2.421 0 0 0 1.09-.972 2.82 2.82 0 0 0 .39-1.48 2.645 2.645 0 0 0-.433-1.48 2.317 2.317 0 0 0-1.22-.935 8.8 8.8 0 0 0-2.606-.272zM168.9-8.962h5.807v7.331a15.823 15.823 0 0 1-6.34 1.387 9.409 9.409 0 0 1-6.867-2.508 8.3 8.3 0 0 1-2.569-6.185 8.6 8.6 0 0 1 2.662-6.451 9.215 9.215 0 0 1 6.674-2.576 11.825 11.825 0 0 1 2.774.316 22.72 22.72 0 0 1 3.319 1.158v2.526a12.168 12.168 0 0 0-6.142-1.8 6.518 6.518 0 0 0-4.78 1.932 6.427 6.427 0 0 0-1.944 4.743 6.388 6.388 0 0 0 1.944 4.817 6.919 6.919 0 0 0 5 1.87 11.666 11.666 0 0 0 3.554-.681l.235-.074v-3.6H168.9z" transform="translate(75.104 32.533)"></path><path id="Path_39" data-name="Path 39" class="cls-1" d="M1.955-17.738h2.477v15.045h7.788v2.254H1.955zm15.729 0h9.807v2.2h-7.33v5.275h7.083v2.217h-7.083v5.374h7.566v2.2H17.684zm21.5-.1h1.746l7.739 17.4H46.13l-2.3-5.126h-7.358l-2.18 5.125h-2.538zM42.812-7.77l-2.786-6.266-2.589 6.266zM53.947-.439v-17.3h4.333a6.255 6.255 0 0 1 4.167 1.3 4.361 4.361 0 0 1 1.542 3.517 4.508 4.508 0 0 1-.755 2.613 4.506 4.506 0 0 1-2.167 1.647 7.643 7.643 0 0 1 1.622 1.486 29.926 29.926 0 0 1 2.229 3.281q.9 1.474 1.449 2.217l.916 1.238h-2.947l-.756-1.138q-.037-.062-.149-.211l-.483-.681-.768-1.263-.83-1.35a13.658 13.658 0 0 0-1.405-1.7 5.347 5.347 0 0 0-1.152-.91 3.878 3.878 0 0 0-1.727-.279h-.644v7.533zm3.219-15.194h-.743v5.461h.941a6.985 6.985 0 0 0 2.582-.322 2.42 2.42 0 0 0 1.09-.972 2.82 2.82 0 0 0 .39-1.48 2.645 2.645 0 0 0-.433-1.48 2.318 2.318 0 0 0-1.22-.935 8.8 8.8 0 0 0-2.607-.272zm29.065-2.105h2.353v17.3h-2.13L74.889-13.751V-.439h-2.328v-17.3h2.006L86.231-4.315zm9.352 0h9.807v2.2h-7.33v5.275h7.083v2.217H98.06v5.374h7.566v2.2H95.583zm16.051 17.3v-17.3h4.334a6.255 6.255 0 0 1 4.167 1.3 4.361 4.361 0 0 1 1.542 3.517 4.508 4.508 0 0 1-.755 2.613 4.506 4.506 0 0 1-2.167 1.647 7.644 7.644 0 0 1 1.622 1.486 29.927 29.927 0 0 1 2.229 3.281q.9 1.474 1.449 2.217l.916 1.238h-2.947l-.755-1.139q-.037-.062-.149-.211l-.483-.681-.768-1.263-.83-1.35a13.657 13.657 0 0 0-1.405-1.7 5.347 5.347 0 0 0-1.152-.91 3.877 3.877 0 0 0-1.727-.279h-.644v7.533zm3.219-15.194h-.743v5.461h.941a6.985 6.985 0 0 0 2.582-.322 2.42 2.42 0 0 0 1.09-.972 2.82 2.82 0 0 0 .39-1.48 2.645 2.645 0 0 0-.433-1.48 2.317 2.317 0 0 0-1.22-.935 8.8 8.8 0 0 0-2.606-.273z" transform="translate(75.056 59.84)"></path></g></svg>