<svg xmlns="http://www.w3.org/2000/svg" viewBox="0 0 318.073 78.479"><defs><style>.a{fill:#40718d}</style></defs><path class="a" d="M83.06 78.479H66.049L56.4 17.575l-.618.049H30.961L39.928 0h29.963l13.171 78.479zm-22.148 0H44.7L38.519 39.2l-18.527-.016L28.463 22.7h23.616l8.835 55.784zm-21.35 0H0l14.836-29.16h20.108l4.618 29.159zm67.434-60.147h2.2l9.769 21.953h-3.2l-2.91-6.469h-9.281l-2.753 6.469h-3.2zm4.578 12.7l-3.516-7.906-3.265 7.909zm31.3-12.578h2.969v21.831h-2.687l-14.594-16.8v16.8h-2.941V18.457h2.531l14.723 16.937zm29.144 0h2.969v21.831H172.3l-14.593-16.8v16.8h-2.938V18.457h2.531l14.721 16.937zm11.8 0h12.377v2.781h-9.25v6.656h8.938v2.8h-8.938v6.781h9.547v2.782h-12.671zm37.5 0h2.969v21.831H221.6l-14.589-16.8v16.8h-2.937V18.457h2.531l14.716 16.937zm19.197 21.831h-7.394V18.457h5.719a9.955 9.955 0 0 1 4.219.727 5.394 5.394 0 0 1 2.313 2 5.435 5.435 0 0 1 .8 2.945 4.754 4.754 0 0 1-3.328 4.609 6.751 6.751 0 0 1 3.8 1.969 5.129 5.129 0 0 1 1.414 3.625 5.326 5.326 0 0 1-.859 2.984 6.251 6.251 0 0 1-2.523 2.141 9.309 9.309 0 0 1-4.161.828zm-1.578-19.047h-2.687v6.563h2.078a5.272 5.272 0 0 0 3.555-.953 3.174 3.174 0 0 0 1.055-2.469q-.001-3.141-4.001-3.141zm.234 9.347h-2.922v6.922h3.078a10.03 10.03 0 0 0 3.477-.4 3.306 3.306 0 0 0 1.469-1.242 3.239 3.239 0 0 0 .555-1.812 3.1 3.1 0 0 0-.586-1.828 3.471 3.471 0 0 0-1.665-1.24 10.421 10.421 0 0 0-3.406-.4zM255.3 18.46h12.375v2.781h-9.254v6.656h8.938v2.8h-8.938v6.781h9.547v2.776H255.3zm20.253 21.825V18.457h5.468a7.893 7.893 0 0 1 5.258 1.641 5.5 5.5 0 0 1 1.942 4.437 5.688 5.688 0 0 1-.953 3.3 5.686 5.686 0 0 1-2.734 2.078 9.645 9.645 0 0 1 2.051 1.872 37.759 37.759 0 0 1 2.813 4.141q1.141 1.859 1.828 2.8l1.156 1.559h-3.719l-.953-1.437q-.047-.078-.187-.266l-.609-.859-.969-1.594-1.047-1.7a17.234 17.234 0 0 0-1.777-2.144 6.747 6.747 0 0 0-1.453-1.148 4.893 4.893 0 0 0-2.18-.352h-.812v9.5zm4.063-19.172h-.937v6.891h1.188a8.814 8.814 0 0 0 3.258-.406 3.054 3.054 0 0 0 1.375-1.227 3.558 3.558 0 0 0 .492-1.867 3.337 3.337 0 0 0-.547-1.867 2.924 2.924 0 0 0-1.539-1.18 11.1 11.1 0 0 0-3.29-.344zm31.129 8.422h7.328v9.25a19.967 19.967 0 0 1-8 1.75 11.872 11.872 0 0 1-8.664-3.164 10.475 10.475 0 0 1-3.242-7.8 10.858 10.858 0 0 1 3.359-8.141 11.628 11.628 0 0 1 8.422-3.25 14.922 14.922 0 0 1 3.5.4 28.671 28.671 0 0 1 4.188 1.461v3.188a15.355 15.355 0 0 0-7.75-2.266 8.225 8.225 0 0 0-6.031 2.438 8.109 8.109 0 0 0-2.453 5.984 8.06 8.06 0 0 0 2.453 6.078 8.73 8.73 0 0 0 6.313 2.359 14.721 14.721 0 0 0 4.484-.859l.3-.094v-4.553h-4.2zm-210.718 24.42h3.125v18.984h9.828v2.844h-12.953zm19.847 0h12.376v2.781H123v6.656h8.938v2.8H123v6.781h9.547v2.779h-12.672zm27.129-.125h2.2l9.769 21.953h-3.2l-2.909-6.469h-9.281l-2.75 6.469h-3.2zm4.578 12.7l-3.516-7.906-3.265 7.909zm14.051 9.253V53.955h5.469a7.893 7.893 0 0 1 5.258 1.641 5.5 5.5 0 0 1 1.945 4.438 5.688 5.688 0 0 1-.953 3.3 5.686 5.686 0 0 1-2.73 2.074 9.645 9.645 0 0 1 2.042 1.875 37.761 37.761 0 0 1 2.813 4.141q1.145 1.859 1.828 2.797l1.156 1.562h-3.718l-.953-1.437q-.047-.078-.187-.266l-.609-.859-.972-1.594-1.047-1.7a17.234 17.234 0 0 0-1.771-2.144 6.747 6.747 0 0 0-1.453-1.148 4.893 4.893 0 0 0-2.18-.352h-.812v9.5zm4.063-19.172h-.937v6.891h1.188a8.814 8.814 0 0 0 3.258-.406 3.054 3.054 0 0 0 1.375-1.227 3.558 3.558 0 0 0 .492-1.867 3.337 3.337 0 0 0-.547-1.867 2.924 2.924 0 0 0-1.539-1.18 11.1 11.1 0 0 0-3.29-.344zm36.676-2.656h2.969v21.828h-2.687l-14.595-16.8v16.8h-2.937V53.955h2.531l14.718 16.937zm11.8 0h12.375v2.781h-9.25v6.656h8.938v2.8h-8.938v6.781h9.547v2.779h-12.672zm20.25 21.828V53.955h5.469a7.893 7.893 0 0 1 5.258 1.641 5.5 5.5 0 0 1 1.945 4.438 5.688 5.688 0 0 1-.953 3.3 5.686 5.686 0 0 1-2.734 2.078 9.645 9.645 0 0 1 2.05 1.871 37.759 37.759 0 0 1 2.813 4.141q1.141 1.859 1.828 2.8l1.156 1.559h-3.719l-.953-1.437q-.047-.078-.187-.266l-.609-.859-.969-1.594-1.047-1.7a17.234 17.234 0 0 0-1.774-2.144 6.747 6.747 0 0 0-1.453-1.148 4.893 4.893 0 0 0-2.18-.352h-.812v9.5zm4.063-19.172h-.937v6.891h1.188a8.814 8.814 0 0 0 3.258-.406 3.054 3.054 0 0 0 1.375-1.227 3.558 3.558 0 0 0 .492-1.867 3.337 3.337 0 0 0-.547-1.867 2.924 2.924 0 0 0-1.539-1.18 11.1 11.1 0 0 0-3.287-.344z"></path></svg>